:SAMPLES-PER-SECOND 30
:FULLY-SPECIFIED
:DEGREES
318
root  -7.77743 33.0749 18.4544 -167.804 31.0922 179.947
RightUpLeg  -9.09606 1.15252 -9.99573
RightLeg  19.3867 -0.548725 -0.156027
RightFoot  -7.3877 -0.0162649 0.299359
RightToes  -44.7102 -0.257161 -0.340154
Spine  0.286505 -0.377118 -1.01598
Spine1  0.477801 -0.425235 -1.47617
HEad  -62.6163 -40.7357 15.986
LeftShoulder1  -1.94126e-019 -3.10601e-018 -2.51263e-017
LeftArm  -23.9323 21.9849 -67.8371
LeftForeArm  32.2309 -7.0312 -1.22163
LeftHand  -0.479981 0.322185 11.0425
RightShoulder  -4.96962e-017 0 -2.36833e-017
RightArm  -29.5484 -15.0855 75.0671
RightForeArm  53.6479 17.4749 1.19031
RightHand  -0.421705 -0.868316 -10.7874
LeftUpLeg  -36.001 13.6077 3.75275
LeftLeg  25.6133 10.4499 4.17308
LeftFoot  8.80515 -0.135706 1.92403
LeftToes  -31.0979 1.31378e-006 1.14341e-007
319
root  -7.4883 33.1375 20.0256 -166.551 29.8113 -178.083
RightUpLeg  -10.8377 1.9013 -6.08856
RightLeg  19.2474 -2.7662 -0.771554
RightFoot  -8.20046 0.00532273 0.637456
RightToes  -39.0495 -0.210935 -0.30969
Spine  0.773843 0.192247 -0.342897
Spine1  1.42332 0.880751 -0.356212
HEad  -62.1207 -34.4133 14.6519
LeftShoulder1  -1.94126e-019 -3.10601e-018 -2.51263e-017
LeftArm  -30.2223 20.7437 -68.2022
LeftForeArm  31.3999 -5.49127 -0.953007
LeftHand  -0.401791 1.86981 13.1337
RightShoulder  -4.96962e-017 0 -2.36833e-017
RightArm  -27.4328 -12.9121 75.4308
RightForeArm  53.4242 17.8168 1.26003
RightHand  -0.439109 -0.85811 -11.2109
LeftUpLeg  -36.7027 12.8712 6.69552
LeftLeg  22.4795 10.9924 3.71026
LeftFoot  7.23585 -0.0938568 1.64587
LeftToes  -29.8143 1.31378e-006 1.14341e-007
320
root  -7.38461 33.4337 21.499 -165.039 28.353 -177.206
RightUpLeg  -14.3804 0.428526 -3.82914
RightLeg  20.3731 -2.43583 -0.732121
RightFoot  -6.36901 -0.00319456 0.506343
RightToes  -38.1946 -0.204224 -0.304698
Spine  0.706057 0.635979 0.150075
Spine1  1.31714 1.7885 0.579643
HEad  -59.6192 -28.7699 11.687
LeftShoulder1  -1.94126e-019 -3.10601e-018 -2.51263e-017
LeftArm  -33.6449 20.2812 -69.7192
LeftForeArm  29.6635 -4.55718 -0.792234
LeftHand  -0.332826 2.84389 14.8931
RightShoulder  -4.96962e-017 0 -2.36833e-017
RightArm  -24.2466 -11.6048 74.9493
RightForeArm  53.4728 17.8573 1.26539
RightHand  -0.451624 -0.754916 -11.2853
LeftUpLeg  -36.3005 11.5226 8.14547
LeftLeg  16.1621 13.0319 2.85497
LeftFoot  4.04927 -0.033097 1.09777
LeftToes  -26.6684 1.31378e-006 1.14341e-007
321
root  -7.31548 33.7453 22.7624 -164.777 26.6667 -177.839
RightUpLeg  -16.1043 -2.67057 -2.92962
RightLeg  19.4737 -1.02579 -0.291829
RightFoot  -4.37477 -0.0103243 0.289182
RightToes  -38.395 -0.20579 -0.305877
Spine  0.550578 0.76363 0.135294
Spine1  1.03342 1.9269 0.669302
HEad  -55.9257 -23.2565 8.86449
LeftShoulder1  -1.94126e-019 -3.10601e-018 -2.51263e-017
LeftArm  -31.8791 20.7519 -71.3507
LeftForeArm  26.0293 -4.84824 -0.846782
LeftHand  -0.289027 3.20245 14.9545
RightShoulder  -4.96962e-017 0 -2.36833e-017
RightArm  -21.0427 -11.1345 74.5026
RightForeArm  53.6284 18.4541 1.36631
RightHand  -0.455856 0.0760907 -9.73335
LeftUpLeg  -35.6031 14.6544 5.10667
LeftLeg  11.245 15.0117 1.96813
LeftFoot  5.32606 -0.0665023 1.59127
LeftToes  -31.7433 1.31378e-006 1.14341e-007
322
root  -7.24449 34.0176 23.8936 -165.228 24.0002 -178.35
RightUpLeg  -15.6765 -4.3666 -1.92866
RightLeg  16.6462 -1.83381 -0.422472
RightFoot  -2.47464 -0.00636975 0.279533
RightToes  -36.6639 -0.192396 -0.295512
Spine  0.655095 0.637632 0.141182
Spine1  1.24397 1.62444 0.71418
HEad  -53.4501 -18.7066 8.08489
LeftShoulder1  -1.94126e-019 -3.10601e-018 -2.51263e-017
LeftArm  -27.2066 20.92 -72.5769
LeftForeArm  24.3023 -5.96101 -1.04028
LeftHand  -0.360776 2.09552 12.5533
RightShoulder  -4.96962e-017 0 -2.36833e-017
RightArm  -18.4548 -11.0314 74.0272
RightForeArm  53.6838 19.4609 1.54584
RightHand  -0.446274 0.440192 -8.96683
LeftUpLeg  -35.7577 16.6667 2.36582
LeftLeg  13.9853 15.1583 2.71967
LeftFoot  5.50723 -0.0703952 1.67739
LeftToes  -29.8487 1.31378e-006 1.14341e-007
323
root  -7.20488 34.2149 24.8787 -165.947 20.7453 -178.515
RightUpLeg  -14.7027 -5.42549 -0.905284
RightLeg  14.0819 -3.66366 -0.671162
RightFoot  -0.840133 -0.00312296 0.246493
RightToes  -35.1129 -0.180667 -0.285885
Spine  0.822213 0.492223 0.25641
Spine1  1.58198 1.27719 0.963251
HEad  -52.2246 -15.6984 8.27231
LeftShoulder1  -1.94126e-019 -3.10601e-018 -2.51263e-017
LeftArm  -24.4209 20.8335 -73.7338
LeftForeArm  25.7687 -8.28549 -1.45023
LeftHand  -0.453136 0.0583816 9.93309
RightShoulder  -4.96962e-017 0 -2.36833e-017
RightArm  -17.8246 -11.6768 73.3762
RightForeArm  53.7589 20.5307 1.73778
RightHand  -0.474328 0.627493 -9.24505
LeftUpLeg  -35.1453 15.582 1.62633
LeftLeg  20.2519 15.0953 4.42806
LeftFoot  5.39289 -0.0677004 1.68022
LeftToes  -26.9666 1.31378e-006 1.14341e-007
324
root  -7.21242 34.3197 25.7422 -166.51 17.7153 -178.589
RightUpLeg  -14.2316 -7.5161 -0.043277
RightLeg  12.4015 -4.17692 -0.638771
RightFoot  0.128194 0.00212528 0.175377
RightToes  -34.7209 -0.179413 -0.284864
Spine  0.880836 0.548224 0.339024
Spine1  1.70927 1.3205 1.17742
HEad  -51.8425 -13.9445 8.43038
LeftShoulder1  -1.94126e-019 -3.10601e-018 -2.51263e-017
LeftArm  -22.5618 20.8352 -74.9448
LeftForeArm  27.3858 -11.6931 -2.06734
LeftHand  -0.457837 -0.770274 8.75219
RightShoulder  -4.96962e-017 0 -2.36833e-017
RightArm  -18.838 -13.4698 72.6106
RightForeArm  52.9261 22.1225 2.06833
RightHand  -0.473902 0.329816 -9.69045
LeftUpLeg  -34.1042 15.161 0.85113
LeftLeg  26.9229 14.1385 5.98455
LeftFoot  4.31441 -0.0446097 1.34581
LeftToes  -25.9075 1.31378e-006 1.14341e-007
325
root  -7.23529 34.3595 26.5357 -166.777 15.2704 -178.353
RightUpLeg  -14.4337 -10.0133 0.946418
RightLeg  11.6442 -3.59619 -0.501394
RightFoot  0.482087 0.00398788 0.144799
RightToes  -35.3192 -0.182814 -0.287666
Spine  0.822304 0.65914 0.547319
Spine1  1.60426 1.49418 1.6249
HEad  -51.507 -12.3454 8.08458
LeftShoulder1  -1.94126e-019 -3.10601e-018 -2.51263e-017
LeftArm  -21.1431 21.2036 -76.2915
LeftForeArm  28.0873 -15.3469 -2.70281
LeftHand  -0.425482 -0.814761 8.08651
RightShoulder  -4.96962e-017 0 -2.36833e-017
RightArm  -19.8727 -15.1423 71.6671
RightForeArm  50.9722 22.8459 2.28777
RightHand  -0.460644 -0.0811492 -10.1115
LeftUpLeg  -32.1764 15.1532 0.816245
LeftLeg  32.4079 13.6401 7.35972
LeftFoot  2.56545 -0.0158661 0.870136
LeftToes  -23.7974 1.31378e-006 1.14341e-007
326
root  -7.25148 34.3368 27.31 -166.863 13.3692 -177.787
RightUpLeg  -15.3726 -11.7165 2.1669
RightLeg  11.9656 -3.4382 -0.499088
RightFoot  0.220086 0.00259516 0.154543
RightToes  -35.9095 -0.187396 -0.29144
Spine  0.697962 0.87769 0.838147
Spine1  1.36757 1.91106 2.2015
HEad  -51.097 -11.1672 7.65465
LeftShoulder1  -1.94126e-019 -3.10601e-018 -2.51263e-017
LeftArm  -19.9187 21.575 -77.4869
LeftForeArm  28.1293 -19.1358 -3.26551
LeftHand  -0.432826 -1.03094 7.96488
RightShoulder  -4.96962e-017 0 -2.36833e-017
RightArm  -20.6637 -16.1569 70.7081
RightForeArm  49.4483 21.5675 2.10567
RightHand  -0.436353 -0.410092 -10.1803
LeftUpLeg  -29.3728 16.0262 1.33849
LeftLeg  36.4514 15.1309 9.53244
LeftFoot  -0.217749 -0.000150322 0.0823279
LeftToes  -19.6021 1.31378e-006 1.14341e-007
327
root  -7.25467 34.2615 28.0558 -166.884 11.5946 -176.972
RightUpLeg  -16.8225 -12.4058 3.51947
RightLeg  13.2825 -4.10538 -0.692736
RightFoot  -0.119933 0.000412626 0.171025
RightToes  -36.3085 -0.189686 -0.293334
Spine  0.513669 0.990744 1.19571
Spine1  1.00681 2.1308 2.87513
HEad  -50.6503 -9.87086 7.29911
LeftShoulder1  -1.94126e-019 -3.10601e-018 -2.51263e-017
LeftArm  -18.4123 22.0381 -78.363
LeftForeArm  27.6217 -22.7504 -3.7644
LeftHand  -0.418187 -1.2643 7.44824
RightShoulder  -4.96962e-017 0 -2.36833e-017
RightArm  -21.5075 -16.7084 69.9781
RightForeArm  50.2688 19.9034 1.76395
RightHand  -0.434638 -0.360466 -10.045
LeftUpLeg  -25.7116 17.0226 2.48334
LeftLeg  38.6832 17.6268 11.9661
LeftFoot  -2.29623 -0.0182859 -0.750835
LeftToes  -15.1277 1.31378e-006 1.14341e-007
328
root  -7.32884 34.1602 28.775 -167.037 9.41687 -176.397
RightUpLeg  -18.529 -13.5215 4.547
RightLeg  15.1747 -4.79877 -0.973737
RightFoot  -0.351589 -0.00181829 0.185293
RightToes  -36.0082 -0.187406 -0.291481
Spine  0.353498 0.733176 1.48151
Spine1  0.680808 1.60982 3.38807
HEad  -50.5017 -8.25624 7.14887
LeftShoulder1  -1.94126e-019 -3.10601e-018 -2.51263e-017
LeftArm  -16.4531 22.2825 -78.8617
LeftForeArm  27.2795 -25.5952 -4.17039
LeftHand  -0.4002 -1.36711 7.03341
RightShoulder  -4.96962e-017 0 -2.36833e-017
RightArm  -23.0752 -16.5056 69.7176
RightForeArm  52.5645 17.5611 1.24798
RightHand  -0.43264 -0.539648 -10.3503
LeftUpLeg  -21.4791 16.6948 3.56844
LeftLeg  38.8027 19.2461 13.0473
LeftFoot  -3.64853 -0.05078 -1.43266
LeftToes  -10.9381 1.31378e-006 1.14341e-007
329
root  -7.4875 34.048 29.5116 -166.976 6.65431 -175.946
RightUpLeg  -20.7943 -14.9192 5.47053
RightLeg  17.4382 -5.74924 -1.40465
RightFoot  -0.424193 -0.00379978 0.194735
RightToes  -34.864 -0.178809 -0.284311
Spine  0.129584 0.238943 1.74116
Spine1  0.225932 0.601242 3.87995
HEad  -50.7026 -6.88093 7.14242
LeftShoulder1  -1.94126e-019 -3.10601e-018 -2.51263e-017
LeftArm  -14.342 21.8314 -79.2826
LeftForeArm  27.6602 -27.2347 -4.42826
LeftHand  -0.39836 -1.46329 6.91107
RightShoulder  -4.96962e-017 0 -2.36833e-017
RightArm  -25.5179 -16.5624 69.5605
RightForeArm  54.5842 15.6117 1.09629
RightHand  -0.413261 -0.970937 -10.8051
LeftUpLeg  -17.2833 14.809 4.29691
LeftLeg  36.2806 19.8714 12.2584
LeftFoot  -3.49424 -0.0472113 -1.38611
LeftToes  -22.9079 1.31378e-006 1.14341e-007
